<svg aria-hidden="true" xmlns="http://www.w3.org/2000/svg" xmlns:xlink="http://www.w3.org/1999/xlink">

	<symbol viewBox="0 0 20 30" id="mouse" xmlns="http://www.w3.org/2000/svg"> 
		<path
			d="M9.99991 6.87451C9.24992 6.87451 8.75 7.37443 8.75 8.12442V11.8744C8.75 12.6243 9.24992 13.1243 9.99991 13.1243C10.7499 13.1243 11.2498 12.6243 11.2498 11.8744V8.12442C11.2498 7.37465 10.7499 6.87451 9.99991 6.87451Z"
			fill="white" />
		<path
			d="M10 0C4.49992 0 0 4.49992 0 10V20C0 25.5001 4.49992 30 10 30C15.5001 30 20 25.5001 20 20V10C20 4.49992 15.5001 0 10 0ZM17.4999 19.9995C17.4999 24.1244 14.1249 27.4993 10 27.4993C5.87507 27.4993 2.50013 24.1244 2.50013 19.9995V10C2.50013 5.87507 5.87507 2.50013 10 2.50013C14.1249 2.50013 17.4999 5.87507 17.4999 10V19.9995Z"
			fill="white" />
	</symbol>

	<symbol  viewBox="0 0 19 27" id="destination" xmlns="http://www.w3.org/2000/svg">
		<path d="M9.1 0.160156C4.07328 0.160156 0 4.23354 0 9.26016C0 11.2245 0.635556 13.478 1.70439 14.9802L9.09995 26.1602L16.4955 14.9802C17.5643 13.4779 18.1999 11.2536 18.1999 9.26016C18.1999 4.23344 14.1267 0.160156 9.0999 0.160156H9.1ZM9.1 12.7268C7.19328 12.7268 5.63338 11.1669 5.63338 9.26021C5.63338 7.35349 7.19328 5.79359 9.1 5.79359C11.0067 5.79359 12.5666 7.35349 12.5666 9.26021C12.5666 11.1667 11.0067 12.7268 9.1 12.7268Z" fill="white"/>
	</symbol>








</svg>