<svg width="5662" height="838" viewBox="0 0 5662 838" fill="none" xmlns="http://www.w3.org/2000/svg">
<path d="M533.8 2.46623C529.933 3.5329 522.333 6.59957 517.133 9.26623C508.2 13.7996 492.333 29.3996 263.933 257.533C102.333 419 18.1999 503.933 14.1999 509.666C-1.93345 533.4 -3.80012 563.533 9.26655 590.066C13.2665 597.8 17.6665 603.266 32.8665 618.733C43.2665 629.266 53.2665 638.733 55.2665 639.8C59.3999 641.933 66.7332 642.2 71.3999 640.466C73.1332 639.8 78.0665 636.066 82.4665 632.333C91.2665 624.6 107.8 616.066 119.667 613C129.8 610.466 150.867 610.466 161 613C190.733 620.6 215.4 643.933 224.333 673C233 701.266 226.2 733.666 206.867 755.666C198.2 765.666 195.8 770.866 197 778.2C197.8 783 200.333 786.066 216.2 802.2C226.2 812.333 237.933 823 242.2 825.8C254.067 833.666 268.867 837.933 284.333 837.933C299 838.066 308.467 835.8 322.333 828.733C331 824.2 348.067 807.533 578.466 577.133C815.933 339.8 825.533 329.933 830.066 320.733C842.2 295.933 841.666 269.666 828.733 245.266C824.733 237.8 790.2 201.4 784.066 198.2C779.933 196.066 772.6 195.8 767.933 197.533C766.2 198.2 760.866 202.066 756.2 206.2C740.066 220.2 721.666 227 699 227C683.666 227 673.933 224.733 659.666 217.8C639.4 207.8 622.733 188.466 615.4 166.466C612.333 157.133 611.8 153.4 611.8 139.666C611.8 125.933 612.333 122.2 615.4 113C619.8 99.9329 624.733 91.2662 633.533 81.2662C637.133 77.1329 641 71.2662 641.8 68.3329C644.733 58.5996 642.6 54.9996 620.733 33.5329C599.666 12.8662 592.333 7.79957 577.133 3.1329C566.2 -0.200434 545 -0.600434 533.8 2.46623ZM570.6 42.9996C574.733 44.7329 580.6 49.2662 586.466 55.1329L595.666 64.3329L593.266 68.0662C558.333 122.6 566.6 190.6 613.4 233.8C630.866 249.933 656.333 262.066 680.333 265.8C693.933 267.933 718.2 266.6 731.666 263C743.133 259.933 760.866 252.2 769.133 246.466L774.333 243L782.733 251.4C795 263.4 797.933 269.133 798.733 281.8C799.8 301.266 806.466 293.666 677.8 422.333L564.333 535.533L548.066 519.533C529 500.733 525.8 499.266 515.267 504.6C508.067 508.2 504.6 512.6 503.533 519.266C502.067 527.933 503.933 531 520.467 547.666L536.333 563.8L421.267 678.6C293.4 806.333 302.333 798.466 283.667 798.2C271.667 798.066 265.267 794.866 253.4 783.266C248.333 778.333 244.333 773.933 244.333 773.4C244.333 772.866 246.467 769 249.133 765C263.4 742.6 270.2 711.533 267 684.333C260.067 627.4 218.867 583.666 162.067 572.866C132.6 567.266 95.5332 574.733 71.2665 591.133L65.1332 595.266L54.8665 584.733C43.3999 572.733 40.3332 566.2 40.3332 553C40.3332 536.333 36.1999 541 161.667 415.666L275 302.333L290.6 317.933C299.267 326.466 308.067 334.2 310.333 335C321.8 339.266 336.333 328.466 336.333 315.666C336.333 308.6 334.867 306.6 318.2 289.666L303 274.333L417.4 160.066C480.2 97.2662 533.533 44.9996 535.933 43.7996C546.733 38.4662 559.266 38.0662 570.6 42.9996Z" fill="white"/>
<path d="M349.667 340.733C342.467 344.467 339 350.733 339 359.533V366.2L362.733 390.067C375.667 403.133 387.933 414.733 389.933 415.8C403.533 423 421.267 409.4 418.333 393.933C417.667 389.8 413.4 385 393.933 365.133C365.267 336.2 361.8 334.333 349.667 340.733Z" fill="white"/>
<path d="M433 421.933C424.067 426.733 419.4 435.533 421 444.066C421.667 448.2 425.8 453 445.4 472.733C458.333 485.8 470.6 497.4 472.6 498.466C477.533 501 483.533 500.866 489.533 497.666C496.733 494.066 500.333 487.8 500.333 478.866V471.8L476.733 447.933C463.667 434.866 451.4 423.266 449.4 422.2C445.133 419.933 436.733 419.8 433 421.933Z" fill="white"/>
<path d="M1352.33 239.666V277.666H1398.33H1444.33V239.666V201.666H1398.33H1352.33V239.666Z" fill="white"/>
<path d="M1513.27 202.6C1512.73 203 1512.33 299.667 1512.33 417.267V631H1555.67H1599V592.6V554.333L1617.8 532.333C1628.2 520.2 1637.27 510.333 1638.07 510.333C1638.73 510.333 1657.93 537.533 1680.73 570.6L1722.2 631H1770.07H1817.93L1816.07 627.933C1814.87 626.333 1787 586.067 1753.8 538.6C1720.73 491 1693.67 451.667 1693.67 451C1693.67 450.333 1696.6 446.733 1700.07 442.733C1703.67 438.867 1730.07 408.867 1758.87 375.933L1811.13 316.333H1761.4H1711.67L1656.47 379.667C1626.07 414.467 1600.73 443 1600.07 443C1599.53 443 1599 388.733 1599 322.333V201.667H1556.6C1533.27 201.667 1513.67 202.067 1513.27 202.6Z" fill="white"/>
<path d="M1855.93 202.6C1855.4 203 1855 299.667 1855 417.267V631H1898.33H1941.67V592.6V554.333L1960.47 532.333C1970.73 520.2 1979.8 510.333 1980.6 510.333C1981.27 510.333 2000.6 537.533 2023.4 570.6L2064.73 631H2112.6C2150.6 631 2160.33 630.6 2159.53 629.267C2158.87 628.467 2131 588.2 2097.4 539.933C2063.8 491.8 2036.33 451.8 2036.33 451.133C2036.33 450.467 2045.53 439.533 2056.73 426.867C2067.8 414.067 2094.33 384.067 2115.4 359.933L2153.8 316.333H2104.07H2054.33L1998.33 380.467L1942.33 444.6L1941.93 323.133L1941.67 201.667H1899.27C1875.93 201.667 1856.33 202.067 1855.93 202.6Z" fill="white"/>
<path d="M2209.67 239.666V277.666H2255.67H2301.67V239.666V201.666H2255.67H2209.67V239.666Z" fill="white"/>
<path d="M2621.67 239.666V277.666H2667.67H2713.67V239.666V201.666H2667.67H2621.67V239.666Z" fill="white"/>
<path d="M3121.67 416.333V631H3165H3208.33V591.933L3208.47 553L3227.13 531.267C3237.27 519.4 3246.2 509.667 3246.73 509.667C3247.27 509.8 3266.33 537 3289 570.333L3330.33 630.867L3378.07 631C3404.2 631 3425.67 630.733 3425.67 630.2C3425.67 629.8 3397.93 589.8 3364.2 541.267C3330.33 492.733 3302.6 452.333 3302.47 451.533C3302.47 450.6 3327 421.8 3357.13 387.533C3387.27 353.133 3413.53 323 3415.53 320.6L3419.27 316.333H3369.8H3320.33L3264.33 380.467L3208.33 444.467V323.133V201.667H3165H3121.67V416.333Z" fill="white"/>
<path d="M2409.67 277.533C2409.67 297.933 2409.27 316.6 2408.87 318.867L2408.07 323H2382.2H2356.33V361V399L2383.4 399.267L2410.33 399.667L2411.13 479C2411.8 546.467 2412.2 559.533 2414.07 566.467C2422.33 597.667 2435.4 615.267 2458.33 626.333C2474.6 634.2 2487 636.733 2511 636.733C2531.8 636.733 2543.4 635.267 2558.73 630.733L2568.33 627.933V591V553.933L2560.07 556.6C2548.2 560.333 2532.07 561.267 2522.87 558.6C2513.53 555.8 2504.87 548.467 2500.87 539.8L2497.67 533V465.933V399H2529.67H2561.67V361V323H2529.67H2497.67V281.667V240.333H2453.67H2409.67V277.533Z" fill="white"/>
<path d="M3839 265.399C3839 279.266 3838.6 297.933 3838.07 306.733L3837.27 322.999H3811.4H3785.67V360.999V398.999L3812.73 399.266L3839.67 399.666L3840.47 478.999C3841.13 554.866 3841.27 558.866 3844.07 569.266C3851.53 597.666 3865 615.399 3887.8 626.733C3910.47 638.066 3950.2 640.333 3982.2 632.199C3999.4 627.799 3997.67 632.333 3997.67 590.999C3997.67 571.133 3997.13 554.999 3996.6 554.999C3995.93 554.999 3990.73 556.199 3985 557.666C3972.6 560.866 3960.6 561.133 3951.4 558.333C3943.13 555.933 3933.53 547.666 3929.8 539.933C3927.13 534.333 3927 532.333 3927 466.599V398.999H3959H3991V360.999V322.999H3959H3927V281.666V240.333H3883H3839V265.399Z" fill="white"/>
<path d="M4609.13 305.799C4563.27 312.066 4523.13 335.799 4492.07 374.733C4460.73 414.199 4449.93 467.533 4463.67 515.933C4477.93 566.333 4524.2 614.333 4575.4 631.799C4607 642.599 4642.47 644.199 4673.13 636.199C4689.53 632.066 4710.73 622.866 4723.13 614.733C4736.87 605.799 4755.53 589.399 4761.27 581.533L4765.4 575.533L4739.8 548.333C4725.67 533.399 4713.53 520.999 4712.87 520.866C4712.2 520.599 4709 523.799 4705.8 527.933C4698.47 537.266 4687 545.666 4671.67 552.999C4656.6 560.199 4648.2 562.199 4633 562.066C4609 562.066 4591.67 554.466 4573.53 536.333C4564.2 526.999 4560.87 522.599 4556.6 513.533C4539.8 478.733 4545.4 439.266 4571 411.933C4595.4 385.799 4628.2 377.133 4660.07 388.333C4676.33 394.066 4699.67 411.133 4707.27 422.999L4709.4 426.333L4737.53 398.466L4765.53 370.466L4761.27 364.599C4752.47 352.199 4725.53 330.999 4707 321.666C4695.67 316.066 4679.93 310.599 4666.33 307.666C4654.87 305.133 4621.53 304.066 4609.13 305.799Z" fill="white"/>
<path d="M4941.67 305.266C4870.73 312.6 4806.07 370.866 4791.8 440.6C4783.53 481 4791.53 524.733 4813.53 558.333C4851.13 616.2 4913 647.133 4977 640.466C5023.27 635.533 5062.87 613.933 5093.53 576.866C5122.6 541.666 5135.53 501.133 5131.27 457.8C5127.13 416.333 5109.4 381.666 5076.73 351C5039.67 316.333 4991.67 300.066 4941.67 305.266ZM4978.33 389C4991.93 392.466 5002.73 398.733 5013.8 409.666C5029.13 424.866 5036.07 439 5039.13 461.266C5042.2 482.6 5037.13 504.866 5025.4 522.466C4990.47 574.6 4917.93 569.533 4889.93 513C4883.53 500.333 4881.27 489.533 4881.27 473C4881.27 449.666 4887.13 432.866 4901.13 415.933C4908.47 407 4921.67 396.466 4930.2 393C4944.73 386.866 4963.93 385.266 4978.33 389Z" fill="white"/>
<path d="M5333 305.267C5310.87 308.333 5279.27 325.533 5265.67 341.8L5259 349.8V330.467V311H5214.33H5169.67V473V635H5214.33H5259V543.267C5259 441.533 5259.13 440.867 5267.67 423.4C5276.2 405.933 5289.67 395.133 5307.13 391.533C5335.8 385.533 5361 402.467 5369 433C5370.73 439.8 5371 455.133 5371 537.933V635H5415.67H5460.2L5460.6 540.6C5461.13 436.467 5460.87 440.067 5469.93 422.067C5474.73 412.2 5488.07 398.733 5496.6 395C5511.13 388.6 5529.53 388.867 5542.87 395.667C5550.47 399.533 5562.33 411.8 5565.67 419.4C5573 435.933 5572.87 433.533 5573.4 537.933L5573.8 635H5617.8H5661.67V529.533C5661.67 441.133 5661.27 421.8 5659.53 410.067C5652.87 365.133 5633.27 333.667 5601.8 317.267C5577.8 304.733 5543.93 301.133 5516.07 308.2C5488.6 315.267 5471.13 325.4 5450.2 346.333L5436.73 359.8L5433.67 353.133C5429.8 344.733 5410.73 325.667 5399.93 319.133C5381.4 308.2 5353.67 302.467 5333 305.267Z" fill="white"/>
<path d="M4153.4 310.333C4109.4 318.733 4072.07 349.799 4060.87 387.666C4057.93 397.399 4057.67 418.999 4060.2 429.666C4064.2 446.066 4073.93 460.866 4088.73 472.999C4100.33 482.599 4113.8 488.599 4150.33 500.599C4190.33 513.666 4204.47 523.799 4204.33 539.266C4204.33 544.733 4200.33 553.399 4196.2 557.266C4189.4 563.533 4180.6 566.199 4165 566.733C4151.93 567.266 4149.13 566.866 4140.07 563.799C4126.33 559.266 4109.13 548.866 4100.33 539.799L4093 532.333L4069.4 555.933C4056.33 568.999 4045.67 580.333 4045.67 581.133C4045.67 586.199 4070.87 607.266 4090.33 618.333C4102.33 625.133 4123 632.333 4141 635.799C4159 639.399 4193.8 638.999 4212.07 635.133C4238.2 629.666 4255.13 621.133 4271.8 605.266C4293.93 584.333 4304.07 556.733 4300.47 526.999C4297.93 506.866 4292.2 494.066 4279.4 480.199C4266.07 465.799 4253.53 459.399 4211.8 445.533C4198.6 441.133 4183.53 435.533 4178.33 433.133C4154.2 421.933 4148.47 406.466 4163.53 392.599C4171.67 385.133 4180.87 382.466 4197.13 383.266C4208.73 383.799 4210.33 384.199 4222.47 390.199C4230.47 394.199 4237.53 398.866 4240.87 402.333L4246.33 407.933L4268.33 382.733C4280.47 368.866 4290.33 356.999 4290.33 356.333C4290.33 355.533 4286.33 350.999 4281.53 346.066C4267.4 331.666 4243.8 318.999 4218.07 312.199C4204.33 308.466 4168.6 307.533 4153.4 310.333Z" fill="white"/>
<path d="M2913 311.533C2862.33 319.933 2817.53 350.733 2790.73 395.666C2765.27 438.2 2762.87 493.4 2784.2 538.6C2792.47 555.8 2802.2 569.133 2818.87 585.8C2845.67 612.6 2870.87 626.466 2906.07 633.8C2922.2 637.133 2950.33 637.8 2965.67 635.133C2990.6 630.733 3017.4 619.4 3036.47 605.133C3046.87 597.266 3068.33 576.2 3068.33 573.8C3068.33 571.8 3017.27 518.866 3016.47 519.933C3015.93 520.466 3013 524.066 3009.93 527.8C2999.4 540.733 2976.2 554.466 2957.93 558.466C2945.4 561.266 2927.27 560.466 2914.73 556.466C2891.27 549 2868.73 525.933 2860.47 500.866C2856.33 488.333 2855.4 468.333 2858.2 455C2864.6 424.2 2890.47 396.733 2919.8 389C2929.8 386.466 2949 386.466 2959.53 389.133C2976.07 393.266 2999.4 408.333 3009.13 421.133L3014.6 428.066L3041.67 401L3068.73 373.933L3063.8 367.133C3053.27 352.733 3024.07 331 3004.07 322.733C2983.67 314.2 2967.8 310.866 2944.33 310.2C2931 309.933 2919.8 310.333 2913 311.533Z" fill="white"/>
<path d="M3564.87 311.8C3530.73 317.533 3503 332.067 3476.87 358.2C3451.93 383.267 3438.6 407.267 3431.53 440.6C3428.2 455.933 3428.2 490.067 3431.4 505.4C3438.6 539.4 3453.93 566.333 3480.2 591.4C3512.87 622.467 3549.53 636.733 3596.33 636.733C3635.8 636.6 3669.67 626.867 3700.6 606.6C3713 598.6 3728.2 586.333 3729.27 583.533C3729.67 582.467 3721.27 570.6 3709.4 555.4C3698.2 541 3688.33 528.2 3687.4 527.133C3686.07 525.267 3684.87 526.067 3678.73 532.467C3670.33 541.533 3658.6 549.267 3644.87 555C3630.6 560.867 3619.4 563 3601.53 563C3573.8 563 3556.33 556.333 3538.87 539C3528.47 528.733 3521 516.2 3519.4 506.333L3518.6 501.667H3632.6H3746.6L3748.2 484.6C3750.07 462.733 3750.07 455.8 3747.8 440.333C3744.2 417.267 3735.8 395.267 3723 376.2C3708.87 355.267 3680.47 331.933 3657.4 322.2C3630.6 310.867 3594.47 306.733 3564.87 311.8ZM3616.47 387C3627.27 390.733 3636.73 396.867 3645.4 406.067C3652.47 413.667 3660.87 428.867 3662.47 437.267L3663.4 441.667H3591H3518.73L3519.67 437.933C3522.6 425.667 3534.73 407.933 3546.07 399.267C3555 392.333 3568.33 386.067 3577.67 384.467C3588.2 382.6 3606.87 383.8 3616.47 387Z" fill="white"/>
<path d="M1266.6 313.8C1217.4 317.8 1194.33 331 1174.47 366.2L1168.33 377V346.6V316.333H1121H1073.67V473.667V631H1121H1168.33V555.267C1168.33 470.333 1168.6 468.6 1177.53 450.333C1194.2 416.733 1229.8 399 1280.33 399H1299V355.667V312.333L1289.4 312.467C1284.07 312.6 1273.8 313.133 1266.6 313.8Z" fill="white"/>
<path d="M1352.33 473.667V631H1398.33H1444.33V473.667V316.333H1398.33H1352.33V473.667Z" fill="white"/>
<path d="M2209.67 473.667V631H2255.67H2301.67V473.667V316.333H2255.67H2209.67V473.667Z" fill="white"/>
<path d="M2621.67 473.667V631H2667.67H2713.67V473.667V316.333H2667.67H2621.67V473.667Z" fill="white"/>
<path d="M4376.87 541.667C4361.93 544.6 4347.13 556.333 4340.07 570.733C4336.07 578.6 4335.67 580.867 4335.67 591C4335.67 601.133 4336.07 603.4 4340.07 611.267C4345 621.4 4355.27 631.667 4365.13 636.333C4391.67 648.733 4423.8 637.533 4436.6 611.267C4440.6 603.267 4441 601.133 4441 591C4441 580.867 4440.47 578.6 4436.6 570.733C4425.67 548.6 4401.53 536.867 4376.87 541.667Z" fill="white"/>
</svg>
